<svg width="35" height="35" viewBox="0 0 35 35" fill="none" xmlns="http://www.w3.org/2000/svg">
<path d="M0 17.5C0 7.8505 7.83094 0 17.4564 0C27.0818 0 34.9128 7.8505 34.9128 17.5C34.9128 27.1495 27.0818 35 17.4564 35C7.83094 35 0 27.1495 0 17.5Z" fill="white"/>
<path d="M26.5126 17.9819L13.7112 26.7319C13.6129 26.7989 13.4983 26.8334 13.3836 26.8334C13.2905 26.8334 13.1969 26.8112 13.1119 26.7657C12.921 26.6648 12.8018 26.4664 12.8018 26.25V8.75002C12.8018 8.53361 12.921 8.33527 13.1119 8.23436C13.3028 8.13286 13.5332 8.14686 13.7118 8.26819L26.5132 17.0182C26.6715 17.1267 26.7669 17.3069 26.7669 17.5C26.7669 17.6931 26.6715 17.8734 26.5126 17.9819Z" fill="black"/>
<path d="M26.5126 17.9819L13.7112 26.7319C13.6129 26.7989 13.4983 26.8334 13.3836 26.8334C13.2905 26.8334 13.1969 26.8112 13.1119 26.7657C12.921 26.6648 12.8018 26.4664 12.8018 26.25V8.75002C12.8018 8.53361 12.921 8.33527 13.1119 8.23436C13.3028 8.13286 13.5332 8.14686 13.7118 8.26819L26.5132 17.0182C26.6715 17.1267 26.7669 17.3069 26.7669 17.5C26.7669 17.6931 26.6715 17.8734 26.5126 17.9819Z" fill="black"/>
</svg>
