<svg width="1902" height="289" viewBox="0 0 1902 289" fill="none" xmlns="http://www.w3.org/2000/svg">
<path d="M1899.35 100.938C1897.74 99.4095 1898.29 97.3957 1898.12 95.5829C1897.48 86.1602 1898.48 76.5626 1895.87 67.2669C1893.15 57.7989 1886.62 48.6986 1882.36 39.3433C1880.34 34.7792 1880.27 29.971 1878.04 25.4141C1876.14 21.4909 1875.24 16.5943 1863.73 15.8221C1833.57 13.8231 1803.3 11.652 1772.29 15.021C1756.12 16.7583 1740.03 18.0231 1724.35 16.1059C1719.15 15.4657 1716.68 15.6693 1711.33 16.3839C1698.98 18.0465 1685.42 17.6393 1672.4 18.1516C1667.55 18.3209 1662.17 18.2151 1657.96 19.1831C1647.81 21.4732 1640.06 21.5675 1631.65 17.8712C1616.94 11.4613 1597.62 8.84982 1576.92 8.28096C1568.32 8.0525 1559.35 8.77593 1550.86 8.36809C1541.33 7.93766 1532.08 6.61753 1522.74 5.82834C1515.59 5.1979 1505.61 9.71094 1501.06 3.88564C1500.95 3.71346 1496.01 4.35505 1493.44 4.73804C1489.63 5.28144 1485.64 6.41796 1481.92 6.37182C1462.36 5.93913 1442.4 6.04818 1423.52 4.35982C1399.56 2.26196 1373.91 5.15079 1350.9 0.790371C1349.97 0.588404 1348.04 1.65291 1346.49 1.76552C1341.03 2.30793 1335.37 3.09192 1329.89 3.10699C1319.45 3.11913 1307.69 1.00652 1298.85 2.66386C1270.81 7.92426 1243.12 5.60447 1215.32 6.04579C1204.67 6.24091 1194.02 6.14307 1183.37 6.16241C1175.09 6.21611 1165.11 7.56149 1159.06 5.95395C1150.6 3.7847 1145.5 2.67209 1138.93 7.12489C1138.03 7.74323 1132.35 8.05847 1131.92 7.66273C1123.3 0.86458 1108.55 4.66436 1097.08 5.00547C1091.19 5.15214 1088.24 6.42844 1083.8 3.65C1080.09 1.31511 1072.28 -3.1059 1067.69 4.50472C1067.3 5.10506 1063.51 5.94142 1061.85 5.76466C1050.01 4.47596 1038.37 2.94568 1026.54 1.59839C1023.01 1.19348 1019.18 1.26812 1015.56 1.10119C1015.51 8.319 1004.88 6.16677 995.997 6.41786C992.483 6.4817 988.834 8.54492 985.253 9.60846C982.898 10.2772 979.431 11.6301 978.179 11.3218C975.675 10.7051 974.073 9.29424 972.581 8.05559C970.118 5.67749 972.65 1.30653 962.254 2.66632C951.654 4.0919 941.395 6.38559 930.675 7.34603C920.985 8.21186 910.845 8.03741 901.014 7.85216C893.46 7.70488 882.313 2.5202 882.952 11.7086C883.005 13.1734 876.358 15.2825 873.492 16.0864C849.531 22.7298 824.957 23.7626 800.953 17.6182C799.178 17.1521 795.336 16.6994 794.628 17.1348C787.317 20.9096 778.587 19.6887 770.304 19.3908C761.708 19.0452 761.17 21.3519 763.225 23.8616C769.932 32.1344 770.035 32.1308 753.524 35.9918C751.983 36.2802 750.66 36.8544 749.334 37.3699C747.089 38.2109 744.949 39.1068 742.706 40.0063C740.801 38.7821 737.657 37.6011 737.609 36.2534C737.581 35.4917 742.181 33.982 744.963 33.709C754.442 32.7332 757.482 30.9845 751.861 27.0738C750.59 26.2381 751.463 24.6237 751.626 23.386C752.555 17.5457 744.914 14.9961 732.268 17.021C727.333 17.8384 722.413 19.0659 717.462 19.4145C715.295 19.5487 712.855 17.8152 710.549 16.9569C712.579 15.8888 714.276 14.1869 716.542 13.9319C720.971 13.4255 725.846 13.8422 730.491 13.6216C732.764 13.5424 735.015 12.8772 737.277 12.505C735.489 11.6873 733.884 10.1593 732.022 10.1655C716.096 10.1342 700.073 10.2822 684.164 10.7195C681.891 10.7987 679.579 12.6394 677.239 13.7183C679.737 14.1592 682.141 14.8967 684.624 14.9275C688.661 15.0214 692.773 14.35 696.809 14.4439C708.092 14.7546 704.316 19.0515 703.584 21.7171C702.12 27.0481 689.13 25.2717 687.345 24.5126C680.31 21.5312 691.66 23.7168 691.504 22.2556C691.484 21.6696 690.727 20.7573 689.793 20.6726C685.534 20.1171 680.95 19.1622 676.721 19.4857C665.171 20.3577 657.94 26.3592 645.002 26.0476C644.174 26.0178 643.082 27.2879 642.173 27.9062C644.258 28.3615 646.249 29.1134 648.528 29.21C658.266 29.6918 669.015 29.5517 667.701 36.1682C667.35 37.9404 666.793 39.7198 666.34 41.4956C662.886 40.3254 659.225 39.1623 655.871 37.9299C653.252 36.9653 650.94 35.9312 648.524 34.9008C646.503 36.2032 644.376 37.4507 642.563 38.8046C641.656 39.4815 641.273 40.3163 640.472 41.0482C639.373 42.1425 638.275 43.2368 637.176 44.3311C634.866 43.3556 630.381 42.28 630.66 41.3903C632.94 32.8628 619.784 29.3321 608.051 25.1066C603.128 23.3422 599.731 20.8793 591.74 22.9766C590.203 23.3822 586.424 21.8126 583.609 21.1481C586.05 20.007 588.162 18.3494 591.037 17.7798C594.736 17.1228 599.413 17.7811 603.007 17.0691C605.06 16.6455 605.712 14.6281 607.009 13.2923C605.038 13.1263 602.951 12.6124 600.782 12.688C593.036 12.9581 585.286 13.111 577.763 13.8426C575.291 14.1048 571.227 16.1238 571.469 17.1127C572.819 23.0496 562.531 21.6483 556.146 22.3989C554.087 22.6467 551.463 21.5649 549.172 21.1168C550.479 20.0739 551.892 19.086 553.095 18.0467C554.9 16.4584 556.496 14.8188 558.3 13.2305C551.465 12.9408 544.625 12.534 537.695 12.4823C537.385 12.4931 534.923 15.9229 536.295 16.6964C545.27 21.8981 535.312 26.8213 533.838 31.8594C533.555 32.6319 528.305 33.2843 525.331 33.9747C524.26 32.956 521.522 31.5848 522.326 30.9115C528.633 25.1182 518.714 25.3467 511.637 24.0681C508.724 23.583 507.409 21.5169 505.293 20.1827C508.274 19.6681 511.254 19.1535 514.127 18.5253C516.384 18.0359 520.484 17.013 520.373 16.7822C516.553 11.1661 491.127 8.64991 481.656 12.7348C478.905 13.8867 475.208 14.6023 472.036 15.5342C471.878 14.0144 471.925 12.4288 471.457 10.9197C471.217 9.98943 469.948 9.21233 469.194 8.35863C467.459 9.00578 464.481 9.57896 464.093 10.2965C462.644 13.163 461.507 16.0773 460.99 18.97C459.787 25.8172 459.992 25.7515 447.085 23.3855C444.796 22.996 441.301 23.5871 438.523 23.9773C432.964 24.6991 425.806 26.9434 422.362 26.0661C411.305 23.401 400.531 22.838 388.28 24.3798C385.81 24.7005 382.172 24.1821 380.079 23.4924C372.858 21.1041 366.525 20.3863 359.427 24.3297C357.703 25.2699 350.273 25.7049 349.006 24.9864C346.475 23.608 344.787 19.7948 345.709 19.528C350.936 18.2311 356.903 17.3777 362.784 16.9967C366.909 16.6769 371.175 17.4081 375.308 17.3227C376.135 17.2939 378.017 14.9989 377.493 14.7825C374.348 13.6015 370.79 12.4349 366.944 11.865C362.889 11.2437 358.228 11.0542 353.781 11.0333C341.162 10.9452 327.827 8.18353 316.785 14.6112C314.253 16.1074 307.218 16.0007 302.174 16.6459C300.613 10.599 284.785 13.3215 278.95 9.18367C276.509 7.45009 265.512 3.55086 261.843 10.8361C261.455 11.5536 257.855 12.0898 255.597 12.5792C253.34 13.0686 250.973 13.3858 248.608 13.7616C250.692 14.2169 252.878 14.61 254.964 15.1239C256.737 15.5315 258.511 15.9976 260.183 16.4673C258.442 16.9387 256.812 17.6408 255.059 17.7606C248.153 18.4121 241.137 18.8327 234.227 19.3669C240.148 20.0992 246.172 20.8278 252.092 21.5601C253.962 21.7882 255.837 22.1921 257.709 22.4789C255.458 23.144 253.225 24.3365 250.953 24.4158C237.211 24.7189 223.356 24.7913 209.61 24.9773C205.681 24.9969 201.541 24.9066 197.73 25.3328C196.185 25.504 194.271 26.92 194.094 27.7476C193.834 29.1646 194.816 30.597 195.279 31.9889C190.212 31.9895 185.044 32.0524 179.977 32.0531C180.239 30.6946 180.606 29.3912 180.764 28.0363C180.836 27.1538 180.495 26.2857 180.36 25.4104C178.303 25.7168 174.791 25.8392 174.395 26.3224C172.715 28.493 170.324 31.0403 171.325 33.0001C171.881 34.0954 178.415 34.6302 182.462 35.0171C185.781 35.312 189.392 35.0688 192.905 35.005C213.169 34.8851 213.692 35.0429 223.072 42.8705C224.031 43.6584 226.937 43.9677 228.206 44.7448C229.262 45.3534 229.3 46.408 229.845 47.2104C217.032 47.4811 225.152 51.8913 223.061 54.1349C218.083 59.5298 213.992 60.7871 202.649 58.7772C200.983 58.4833 197.767 58.1848 197.565 58.3092C189.476 66.3352 171.232 59.3446 159.43 64.7428C153.732 67.3468 149.422 65.385 152.486 70.0889C153.141 71.0634 154.627 72.1262 154.247 73.0781C149.873 83.7906 148.305 94.8746 133.131 104.321C132.119 104.943 128.804 104.765 126.536 104.962C125.344 100.545 118.63 100.779 110.994 101.221C108.207 101.377 102.694 100.454 102.78 99.9819C103.053 96.0417 93.2531 90.9274 109.818 88.5898C111.671 88.3492 112.751 86.7276 114.269 85.7947C112.192 85.5737 110.007 85.1806 107.834 85.139C106.179 85.138 104.545 85.723 102.79 85.7842C99.6892 85.8336 96.6857 85.7037 93.581 85.636C94.0429 84.0945 94.6081 82.5495 94.9689 81.0702C95.1482 80.3013 95.726 79.1078 94.9946 78.8987C88.3135 77.137 70.2812 78.939 67.7006 81.9623C62.1452 88.5506 51.2163 89.4597 39.0822 88.4748C27.4686 87.589 17.3701 88.5864 8.5083 92.3567C5.8607 93.5051 1.68484 95.2933 2.13567 96.3336C3.02894 98.1798 6.43448 100.877 9.54129 101.003C21.0411 101.6 31.9184 105.034 44.6289 101.892C49.0365 100.8 54.7148 100.543 59.7798 100.484C62.5705 100.445 67.3633 101.451 67.5992 102.264C68.1931 104.414 67.3494 106.849 65.7723 109.016C65.4793 109.496 59.9 109.632 56.9998 109.498C49.6438 109.109 42.0414 107.614 35.0309 108.211C25.5458 109.011 15.9972 110.928 7.70481 113.27C5.8688 113.979 9.01476 118.094 8.06575 120.473C6.54522 124.222 2.54386 127.999 12.2474 130.418C10.3144 131.307 8.37932 132.137 6.44631 133.026C4.5112 133.856 2.5761 134.686 0.640993 135.516C3.0374 136.019 5.33262 136.585 7.72693 137.029C9.80721 137.367 12.0899 137.581 14.2692 137.798C12.4395 138.684 10.9259 139.734 8.77586 140.337C-0.943652 143.257 0.371128 145.323 10.1403 146.684C19.9115 148.103 29.883 149.339 39.6522 150.7C41.0032 150.888 42.0612 151.555 43.3173 151.98C41.8839 152.382 40.5601 152.956 39.1163 153.065C28.3011 154.264 17.5913 155.517 6.76989 156.54C0.998733 157.093 -1.68029 157.363 4.80273 159.366C11.3911 161.424 17.676 163.669 23.5539 166.104C24.9175 166.643 25.2037 168.863 24.2846 169.188C21.0153 170.299 15.5393 170.432 13.5177 171.734C9.5735 174.218 6.99084 177.183 5.02786 180.126C4.73268 180.547 10.5709 181.869 13.9031 182.515C16.1941 182.963 18.8815 182.928 21.474 183.131C19.1342 184.21 17.1146 185.571 14.347 186.254C10.7615 187.201 6.53326 187.524 2.84029 188.357C1.91914 188.624 1.04198 190.121 1.25273 190.231C6.78318 191.622 12.4525 194.006 18.2425 193.98C25.6871 193.955 27.9614 193.934 24.6767 197.51C22.286 200.058 26.8276 202.715 30.3649 200.421C37.1339 195.961 44.82 199.8 51.2723 198.05C53.0134 197.578 56.6722 198.683 59.4796 199.113C57.576 200.822 56.5362 203.557 53.659 204.068C47.6011 205.276 40.2451 204.887 34.0817 206.041C31.3078 206.548 30.1606 209.17 28.2548 210.82C31.2626 211.067 35.1217 211.989 36.9619 211.397C44.329 209.204 47.2376 209.572 50.5796 213.386C55.54 219.079 58.3202 218.748 66.6049 213.296C67.7159 212.554 72.8736 212.198 74.6483 212.664C83.8333 215.042 78.2186 222.865 91.2718 223.524C102.46 224.073 114.109 223.08 125.578 222.798C128.369 222.759 131.073 223.193 133.863 223.154C138.412 223.113 144.219 223.556 147.387 222.506C158.928 218.467 169.54 220.267 180.458 221.94C182.017 222.179 183.379 222.66 184.839 223.019C183.206 223.604 181.692 224.654 180.04 224.712C167.652 225.32 168.697 228.51 171.828 232.214C173.879 234.607 175.212 237.2 177.876 239.395C183.732 244.119 171.821 246.471 170.09 250.11C169.9 250.585 167.535 250.961 166.205 251.36C164.355 248.784 162.608 246.205 160.758 243.63C160.214 242.886 158.824 241.585 158.204 241.607C152.23 242.284 142.831 254.169 147.449 256.062C157.207 260.004 152.641 262.451 142.977 264.02C138.145 264.834 129.763 264.657 134.627 267.655C137.483 269.433 133.594 276.374 148.366 273.043C151.855 272.276 158.544 274.272 163.341 275.395C166.469 276.108 152.528 276.652 162.399 277.951C165.931 278.414 170.857 280.237 172.571 276.13C173.619 273.629 193.314 272.062 198.236 273.768C199.388 274.197 200.866 275.026 200.469 275.509C200.075 276.051 198.026 276.591 196.587 276.818C193.189 277.229 189.682 277.469 186.176 277.767C190.234 278.447 194.192 279.248 198.346 279.748C201.668 280.102 205.481 279.734 208.701 280.15C211.089 280.419 212.988 281.467 215.081 282.157C212.83 282.822 210.692 283.777 208.325 284.094C202.666 284.878 196.89 285.314 191.225 285.922C189.783 286.09 188.449 286.371 187.009 286.597C188.265 287.022 189.431 287.803 190.775 287.815C195.33 287.949 200.174 287.487 204.632 287.801C207.949 288.037 213.465 289.019 213.602 289.952C214.275 294.329 225.361 297.814 216.866 303.156C214.842 304.4 216.707 307.385 218.631 309.137C219.701 310.156 224.359 310.287 227.378 310.827C227.652 309.82 228.234 308.744 228.302 307.744C228.53 302.573 228.447 297.355 229.089 292.17C229.256 291.049 231.775 289.201 233.731 288.957C245.674 287.485 244.495 283.419 244.873 279.534C245.031 278.179 246.326 276.785 247.104 275.408C249.816 276.076 252.322 276.752 255.134 277.299C258.363 277.949 261.693 278.537 265.118 278.887C265.533 278.931 267.85 277.208 267.536 277.101C264.807 275.964 261.774 275.014 258.741 274.064C257.801 273.803 256.153 273.978 255.52 273.648C252.683 272.398 250.155 271.078 247.522 269.762C251.55 269.621 256.28 268.87 259.507 269.461C265.756 270.71 271.206 272.749 271.212 267.117C271.21 267.059 275.849 266.662 275.855 266.838C279.134 271.769 287.78 270.646 295.937 270.303C304.505 269.887 313.168 269.233 321.755 269.344C337.998 269.541 341.132 267.554 335.093 260.607C333.369 258.673 332.877 256.46 331.768 254.387C337.052 254.672 342.436 254.837 347.724 255.239C350.525 255.493 354.157 255.836 355.43 256.73C360.747 260.827 364.315 259.412 368.744 256.031C371.262 254.125 374.523 252.779 376.098 256.362C376.661 257.633 379.487 258.59 381.182 259.704C381.863 258.507 382.337 257.317 383.124 256.175C383.817 255.33 384.926 254.528 385.932 253.731C387.506 254.38 389.694 254.831 390.653 255.619C391.614 256.466 391.449 257.645 391.796 258.689C392.949 261.993 392.841 261.879 398.884 260.26C400.626 259.789 404.755 259.586 405.391 260.034C412.164 264.373 424.352 263.948 432.493 266.07C442.517 268.771 447.648 267.654 455.422 265.27C458.491 264.342 462.513 264.026 466.111 263.431C468.257 271.394 474.019 264.798 478.951 263.922C481.725 263.415 485.369 264.109 488.575 264.115C492.609 264.15 498.317 264.714 500.454 263.759C504.93 261.667 505.769 259.115 498.569 257.313C497.214 257.008 499.232 252.714 499.542 252.703C508.844 252.555 520.54 249.976 524.885 255.809C527.599 259.41 532.346 259.127 538.402 257.86C545.176 256.45 551.342 255.356 557.144 258.556C558.832 259.494 563.682 259.208 567.105 259.499C567.364 258.082 569.055 256.205 567.681 255.372C565.883 254.262 561.826 253.582 558.515 253.521C555.307 253.457 551.827 254.459 548.423 254.695C547.185 254.796 545.708 253.968 544.351 253.605C545.259 252.986 546.151 251.899 547.081 251.867C555.756 251.564 564.527 251.024 572.92 251.494C575.613 251.635 576.658 254.825 579.499 256.192C582.34 257.56 585.906 258.961 589.849 259.352C597.218 260.092 605.175 259.932 612.642 260.552C624.777 261.536 629.675 259.723 630.395 253.831C630.552 252.418 632.354 250.771 634.591 249.696C636.216 248.876 649.285 255.754 650.32 255.777C661.09 256.222 658.754 260.293 660.41 263.227C661.335 263.078 662.678 263.031 663.184 262.72C666.618 260.43 673.646 257.427 672.554 255.823C668.747 250.558 681.023 249.719 683.595 246.462C687.597 248.493 691.698 250.403 695.393 252.504C701.199 255.821 706.078 259.23 717.951 255.824C721.227 254.888 727.247 255.5 731.711 255.989C739.081 256.788 746.46 257.822 753.232 259.228C755.941 259.779 757.348 261.549 759.355 262.711C756.465 262.87 753.676 262.968 750.786 263.127C748.413 263.268 746.038 263.351 743.561 263.496C744.631 264.515 746.252 266.453 746.56 266.384C754.784 265.041 756.561 274.248 767.213 268.48C767.443 269.117 767.674 269.813 767.904 270.45C768.262 271.787 767.598 273.453 769.081 274.457C774.067 277.979 774.897 280.942 766.114 284.006C764.172 284.66 764.347 286.649 763.674 288.08C772.447 287.598 781.211 286.882 789.996 286.752C798.988 286.614 795.78 283.676 797.469 281.739C798.064 281.015 800.61 279.928 801.234 280.024C809.251 281.563 811.375 286.007 805.085 289.394C798.896 292.719 804.652 294.63 807.516 296.642C810.805 298.992 814.216 298.931 814.817 295.508C817.509 295.59 820.906 295.178 822.582 295.765C841.527 302.145 850.523 302.124 868.43 296.807C872.728 295.542 877.554 288.803 885.429 295.041C887.261 294.214 890.931 292.737 890.72 292.627C888.077 291.018 884.412 289.737 882.077 288.059C878.897 285.882 876.328 283.449 874.276 280.997C873.736 280.371 875.334 278.79 876.871 278.384C883.937 276.437 897.274 279.257 900.095 282.972C902.483 286.115 905.075 289.193 908.59 292.062C909.656 292.964 914.959 293.776 916.803 293.301C930.328 289.779 947.348 288.599 955.564 281.214C958.968 278.103 966.049 276.566 971.71 278.715C983.763 283.223 984.352 279.448 987.814 275.044C993.753 267.621 1011 267.02 1023.99 271.612C1034.25 275.244 1039.93 283.67 1060.48 279.961C1071.18 281.407 1074.95 279.809 1070.11 274.58C1068.28 272.649 1067.69 270.499 1066.58 268.484C1070.24 269.413 1073.79 270.345 1077.44 271.215C1078.27 271.421 1079.93 271.422 1080.74 271.159C1089.85 268.319 1096.25 271.029 1103.65 272.531C1107.92 273.379 1113.19 273.43 1117.96 273.792C1118.11 272.203 1117.43 270.525 1118.51 268.962C1119.59 267.282 1122.64 265.826 1124.03 264.135C1126.8 260.694 1136.33 258.191 1142.8 259.902C1148.12 261.3 1152.24 263.621 1156.86 265.572C1151.72 266.338 1146.57 266.986 1141.53 267.807C1139.17 268.183 1136.81 268.793 1134.66 269.513C1134.15 269.707 1134.6 270.513 1134.62 271.04C1136.77 270.672 1139.03 270.065 1141.19 269.931C1145.01 269.739 1149.96 269.156 1152.47 269.949C1159.16 272.062 1172.58 265.61 1174.4 273.056C1176.24 272.405 1177.96 271.407 1179.92 271.221C1187.12 270.383 1194.43 269.307 1201.67 269.348C1204.25 269.375 1206.32 272.178 1208.95 273.553C1210.32 274.209 1213.66 275.148 1214.28 274.892C1217.95 273.474 1222.34 271.971 1224.24 270.086C1227.44 266.983 1228.13 266.255 1229.82 267.252C1243.01 274.536 1257.61 272.15 1273.28 268.024C1276.56 267.147 1281.52 267.15 1285.36 267.369C1287.95 267.513 1290.37 268.719 1292.27 269.651C1293.85 270.475 1294.41 271.688 1295.48 272.707C1296.99 271.656 1300.15 270.373 1299.81 269.563C1297.21 263.377 1308.52 267.324 1312.08 265.733C1314.83 267.338 1318.4 268.739 1319.91 270.564C1321.31 272.216 1320.46 274.3 1320.52 276.233C1324.31 275.045 1328.4 273.905 1331.87 272.552C1334.52 271.521 1336.54 270.101 1338.67 268.795C1349.19 262.327 1348.88 262.455 1359.32 267.899C1361.95 269.274 1366.85 270.277 1370.88 270.312C1372.85 270.361 1375.44 267.806 1377.57 266.383C1379.18 265.271 1380.76 263.104 1382 263.119C1385 263.191 1388.85 263.878 1390.44 264.937C1393.19 266.777 1395.24 269.052 1396.15 271.309C1397.28 274.144 1398.04 274.997 1405.97 274.193C1422.76 272.434 1440.35 272.525 1457.03 270.594C1474.02 268.652 1492.67 266.77 1506.58 262.237C1527.53 255.405 1550.26 254.965 1572.62 252.542C1580.14 251.694 1589.09 250.384 1593.96 247.985C1601.59 244.258 1606.91 242.664 1615.31 246.419C1620.99 248.92 1626.59 249.429 1634.98 246.848C1642.96 244.399 1654.85 241.521 1662.23 242.554C1674.9 244.283 1686.43 242.708 1698.51 242.286C1763.48 239.963 1824.63 232.316 1875.89 211.286C1878.64 210.134 1882.26 207.192 1882.05 207.141C1873.05 204.11 1882.92 202.417 1885.22 200.342C1886.82 198.878 1890.56 196.401 1890.25 196.295C1878.95 192.582 1891.04 189.696 1892.9 186.522C1893.77 185.084 1894.34 183.539 1894.6 182.063C1895.24 176.819 1894.74 171.557 1896.21 166.343C1899.61 154.491 1904.46 142.706 1907.66 130.861C1909.67 120.583 1909.2 110.391 1899.35 100.938Z" fill="#DFF5B0"/>
</svg>
