<svg width="112" height="380" viewBox="0 0 112 380" fill="none" xmlns="http://www.w3.org/2000/svg">
<path d="M78.6453 197.565C78.3592 197.094 78.2399 196.918 78.1446 196.741C77.9538 196.898 77.6437 197.016 77.5722 197.212C77.5245 197.349 77.7391 197.546 77.8584 197.722C78.1922 197.644 78.5023 197.585 78.6453 197.565Z" fill="#FFE68E"/>
<path fill-rule="evenodd" clip-rule="evenodd" d="M1 6.14114C0.689981 5.45447 0.687399 4.61084 1.90363 4.43427C3.42988 4.19882 3.71605 3.25711 4.76535 2.78625C5.60001 2.41348 6.29159 2.3154 6.64931 3.25711C6.81624 3.70834 7.34089 4.12039 7.53167 4.57162C7.81784 5.27792 8.10402 4.88553 8.65251 4.80704C9.82105 4.63046 11.085 5.19943 11.2281 5.92535C11.3473 6.51392 11.1327 7.10251 11.2996 7.69107C11.3711 7.94611 11.9435 8.29929 12.3727 8.41699C13.6128 8.77014 14.2329 8.20114 14.9006 7.73029C14.6383 7.61258 14.4236 7.47525 14.1375 7.41638C13.6367 7.29868 12.8497 7.33792 13.5174 6.76895C13.9228 6.43542 14.1852 6.04306 14.519 5.67029C14.9721 6.08228 15.5683 6.45508 15.8545 6.90631C16.6653 8.26004 16.6176 8.24039 19.4555 8.43658C20.2425 8.49545 21.1725 9.67258 21.7449 8.24039C21.9833 7.6322 24.6066 8.31891 26.0374 9.14291C27.0152 9.69226 28.2553 10.1239 29.4477 10.3985C30.6162 10.6536 31.904 10.6535 33.1202 10.732L33.227 10.7395C34.0299 10.7959 34.5836 10.8348 33.6925 10.0453C32.6909 9.1821 32.7625 7.9657 30.807 7.33789C29.5907 6.96512 29.3523 6.08228 29.9246 5.29752C30.6877 4.27731 31.6178 3.29639 31.5462 2.02115C31.5224 1.76611 31.5463 1.88379 32.5479 2.11923C33.2156 2.27618 34.1218 2.1781 34.718 1.96228C35.2188 1.78571 35.4096 1.29526 35.7434 0.922485C35.8865 1.39334 35.8388 1.923 36.1965 2.3154C36.7212 2.86475 37.4128 3.84567 38.5575 3.35519C40.1553 2.6489 40.7038 3.86533 40.6561 4.08115C40.3937 5.43488 42.0631 6.1019 43.2078 6.88666C45.0917 8.20114 47.238 7.88724 48.1442 6.27847C48.335 5.94495 48.5735 5.63101 48.9073 5.37598C49.0743 5.23865 49.6943 5.17981 49.8374 5.2583C50.6482 5.7684 51.3636 6.35693 52.1506 6.88666C52.5322 7.14169 53.0091 7.3183 53.4384 7.53412C53.82 7.18097 54.5831 6.8082 54.5115 6.45505C54.2492 5.23865 55.2747 4.31656 55.4893 3.23752C55.6801 2.35464 56.324 2.45276 57.2779 2.94324C57.8741 3.23752 58.5179 3.49252 59.1857 3.72797C59.4718 3.82605 59.9965 3.8653 60.1396 3.76721C61.5943 2.78625 62.1428 3.00211 61.9997 4.41467C61.9759 4.552 62.5959 4.8855 62.9059 4.90512C63.5021 4.94437 64.2414 4.63046 64.6229 4.78741C66.1253 5.41522 65.3384 4.43427 65.6722 4.29694C66.0538 4.13998 66.8885 4.08115 67.1746 4.25772C69.2494 5.49371 69.3209 4.63049 69.3448 3.59067C69.3448 3.43372 69.6071 3.29639 69.774 3.15906C69.941 3.41409 70.0841 3.66913 70.251 3.92416C70.6802 4.57159 71.3957 4.65012 71.968 4.25772C72.9935 3.55142 73.9235 2.78629 74.8297 2.02115C75.0682 1.82495 74.9728 1.43256 75.259 1.29523C76.3798 0.785126 77.5245 -0.0192566 78.7884 0.000366211C80.0762 0.019989 80.7201 1.19708 81.507 2.04071C82.4371 3.06091 83.4864 4.17923 85.2273 4.88553C86.2289 5.29752 86.2527 5.88608 85.2988 6.29807C84.4165 6.67084 83.8203 7.00436 85.108 7.7695C85.8712 8.22073 86.2766 8.90744 86.8489 9.496C85.3942 9.90799 86.8251 10.5555 86.8489 11.0852C86.8489 11.3795 86.7297 11.8699 86.9205 11.9288C87.5643 12.1642 88.3275 12.3408 89.0191 12.3604C89.2337 12.3604 89.6391 11.7522 89.496 11.5168C88.2798 9.53525 87.7551 7.71066 89.5676 5.94495C90.3068 5.21902 90.9269 5.29752 91.4754 5.86649C92.477 6.88669 94.1701 7.90686 92.8824 9.22134C92.7393 9.3783 93.2878 9.80994 93.2401 10.065C93.0493 10.8694 93.9555 11.5364 94.194 12.2623C94.6948 13.773 93.3832 15.2836 95.1002 16.7943C94.1463 17.069 94.1702 17.6576 94.2417 18.2658C94.3609 19.5214 93.0255 20.7966 95.0525 22.0915C95.1956 22.1896 94.2894 22.7979 94.3132 23.2098C94.3371 23.6218 95.1479 24.1123 95.1241 24.5047C94.9333 27.0748 95.0048 27.5064 96.6265 30.2531C96.8888 30.7043 96.9603 31.1948 97.008 31.6656L97.0122 31.727C97.0568 32.3864 97.0928 32.9185 98.2958 32.1954C98.3196 32.1758 98.8443 32.4308 98.8204 32.5092C98.5104 34.0396 99.6074 35.5895 99.6551 37.0609C99.7266 38.9247 99.3213 40.8278 98.5104 42.5543C98.1766 43.2802 98.2481 43.5548 98.7012 44.2611C99.4166 45.399 97.8427 46.2623 97.5804 47.3413C97.1511 47.1844 96.6026 46.8509 96.2926 46.9098C93.6693 47.4395 94.5756 49.3425 93.6217 50.5197C94.814 51.3437 94.194 52.2265 94.2178 53.0701C94.2655 55.1694 94.194 57.2098 95.8395 59.2894C96.4118 60.0349 96.1257 61.0355 96.1018 61.8988C96.0064 64.2727 94.2894 67.5169 95.8395 69.7534C98.0335 72.8925 99.822 75.3182 101.539 78.4573C102.183 79.6345 102.016 81.0863 101.539 82.2634C101.11 83.3229 103.113 84.4412 101.682 85.3436C103.447 86.5404 102.326 87.7961 102.517 89.032C102.588 89.5421 101.897 90.013 101.873 90.5427L101.868 90.5948C101.797 91.3078 98.0523 95.1488 98.5412 95.7808C99.5428 97.0757 101.73 95.9887 101.539 97.3425C101.444 98.0095 103.471 97.9195 104.377 98.5669C105.402 99.3124 102.326 99.4302 103.852 100.529C104.759 101.196 103.542 101.804 103.375 102.412C103.161 103.119 105.235 103.727 103.662 104.413C103.208 104.61 103.351 105.846 103.876 106.317C104.925 107.258 104.615 108.161 104.329 108.867C104.043 109.573 104.043 110.064 104.401 110.79C104.711 111.437 104.472 112.163 104.472 112.85C104.472 113.634 104.162 114.478 104.52 115.204C106.332 118.794 104.925 122.188 105.379 125.681C103.542 129.33 104.472 133.332 104.592 137.197L104.592 137.218C104.687 140.076 104.788 143.09 107.024 145.869C107.859 146.889 103.262 148.338 103.93 149.397C104.908 150.986 107.93 151.754 108.097 153.461C108.193 154.364 108.574 155.364 107.358 156.169C106.833 156.522 107.263 157.483 107.215 158.17C107.191 158.7 108.741 159.308 107.286 159.739C108.312 160.995 106.046 162.27 108.097 163.565C108.169 163.604 102.167 165.534 105.547 165.534C105.762 166.947 101.517 168.149 102.852 169.699C104.164 171.249 109.17 172.982 109.123 175.101C109.075 177.573 108.455 180.085 110.029 182.615C110.482 183.341 110.697 183.871 110.053 184.518C109.576 185.009 110.601 185.598 110.816 186.108C111.03 186.637 109.933 187.599 110.22 187.756C111.531 188.521 109.91 188.678 110.005 189.129C110.053 189.306 109.054 187.756 107.702 187.918C108.847 188.977 107.749 188.697 107.319 189.678C106.307 190.287 102.313 189.479 106.086 192.082C108.828 192.592 106.62 192.739 105.547 193.308C104.808 193.7 100.988 196.486 101.775 197.212C102.609 197.977 111.245 197.977 110.935 199.37C110.887 199.566 110.864 199.763 110.935 199.959C112.127 202.921 112.509 205.844 111.078 208.611C112.795 210.475 111.412 212.26 111.817 214.085C111.865 214.281 111.484 214.497 111.317 214.693C111.197 214.418 111.126 214.124 110.911 213.888C110.697 213.633 110.363 213.359 110.005 213.182C109.79 213.084 109.17 213.064 109.123 213.143C108.765 213.908 108.36 214.673 108.193 215.477C108.049 216.282 108.813 216.635 109.79 216.184C110.434 215.909 110.744 215.909 111.126 216.36C111.412 216.694 111.603 217.067 111.841 217.42C111.34 217.459 110.577 217.675 110.363 217.518C109.313 216.812 108.24 216.537 107.215 217.126C106.642 217.439 105.021 216.949 105.474 217.891C105.689 218.361 106.619 218.773 107.31 219.127C107.644 219.284 108.288 219.146 108.622 219.303C108.908 219.441 109.17 219.99 109.051 220.049C107.429 220.834 106.929 221.913 107.215 223.266C107.334 223.816 107 223.757 106.237 223.462C105.021 223.031 103.471 223.364 103.638 223.992C104.043 225.562 102.398 226.798 103.399 228.563C104.234 230.055 103.495 231.722 104.377 233.409C104.902 234.41 104.401 235.509 106.094 236.392C106.452 236.568 106.428 237.628 106.166 237.686L106.125 237.696C105.025 237.946 104.213 238.13 104.425 239.158C104.568 239.943 104.711 240.649 105.402 241.355C105.545 241.492 105.45 241.748 105.426 241.944C105.355 242.258 105.545 242.748 104.52 242.297C103.662 241.924 102.66 241.708 101.73 241.414C101.515 241.355 101.301 241.277 101.086 241.218C101.014 241.394 100.776 241.591 100.871 241.708C101.968 243.082 97.7711 242.846 99.4166 244.553C100.275 245.436 101.515 246.79 99.2497 247.594C98.9874 247.692 99.0351 248.104 98.9874 248.379C98.7251 250.753 98.5104 251.282 96.4834 253.225C95.7679 253.892 97.0796 254.284 96.9842 254.696C96.8172 255.383 96.4357 256.148 95.6964 256.58C94.5517 257.247 96.4595 257.894 95.911 258.247C94.9094 258.875 95.5772 259.719 95.2672 260.405C95.1241 260.739 94.6471 260.974 94.4086 261.288C94.3609 261.347 95.0048 261.72 95.0525 261.7C96.5549 261.014 96.9842 262.132 97.0557 262.544C97.2942 263.623 97.2226 264.722 97.1034 265.781C97.0557 266.213 96.2449 266.585 96.3641 266.958C96.4834 267.37 97.4611 267.704 97.7473 268.135C98.0335 268.567 98.272 269.293 97.9381 269.489C97.1988 269.921 97.0796 270.411 97.1273 271C97.1988 271.922 96.7934 272.844 97.8904 273.727C95.4102 273.413 96.8172 275.159 95.6725 275.571C94.814 275.885 100.535 276.657 99.0801 276.932C98.8177 276.971 100.325 277.472 100.158 277.452C99.5855 277.354 102.457 278.2 102.313 279.534C102.266 279.966 101.713 282.943 101.236 283.178C99.0655 284.218 101.873 287.185 100.704 288.637C100.156 289.324 105.235 300.029 95.5533 291.507C94.981 292.723 93.1234 293.355 94.7689 294.63C95.2458 295.003 92.5656 295.102 92.6133 295.671C92.8756 298.594 90.6884 296.034 92.477 298.839C92.9062 299.506 93.3593 299.506 94.0748 299.624C95.3625 299.859 96.221 300.35 96.2449 301.292C96.2687 302.704 96.7457 303.862 98.0335 304.902C98.7489 305.49 98.9397 305.726 98.1289 306.236C97.7473 306.471 97.8665 307.217 98.105 307.668C99.4882 310.297 99.5359 312.769 98.1289 315.182C97.795 315.771 98.105 316.555 98.0812 317.242C98.0573 318.282 98.3196 319.341 96.7218 320.067C96.1257 320.342 96.4595 321.441 96.5311 322.166C96.5788 322.618 97.3419 323.285 97.1034 323.481C95.7679 324.521 96.8411 325.482 97.5804 326.502C98.5343 327.817 98.4627 327.797 96.2449 328.209C95.8395 328.288 95.4579 328.621 95.3864 328.896C95.2433 329.347 95.2671 329.7 96.3641 329.994C100.204 331.054 101.515 332.78 100.442 335.017L100.227 337.254C101.754 338.156 100.084 338.862 100.347 339.745C100.585 340.55 100.323 341.472 99.8936 342.217C99.3689 343.159 102.541 342.237 101.277 343.453C100.847 343.865 101.229 344.65 100.824 345.042C99.7028 346.102 100.013 347.357 99.9413 348.593L99.9399 348.613C99.9164 348.963 99.8882 349.383 99.6074 349.633C98.6535 350.438 98.9158 351.105 100.061 351.929C101.658 353.106 102.04 354.852 100.752 356.049C100.084 356.677 99.6313 357.01 100.704 357.736C101.205 358.069 101.444 358.58 101.801 359.011C99.8697 359.09 101.968 360.934 99.7744 361.052C98.6774 361.11 97.1511 361.64 98.7727 362.896C98.9874 363.072 98.2481 363.955 97.318 363.465C96.2926 362.915 95.8395 363.072 95.0287 363.425C93.9794 363.877 95.4341 364.348 95.2195 364.485C94.3371 365.074 93.8601 365.917 92.4054 366.133C89.8776 366.525 88.6614 367.212 88.0652 368.978C87.7551 369.9 85.7042 368.075 86.1573 369.507C86.515 370.665 84.6549 371.489 86.0381 372.902C86.9443 373.824 86.4435 375.197 87.2305 376.198C87.779 376.884 87.9698 377.473 87.9936 378.14C88.0175 378.827 86.7297 380.161 86.6581 379.984C86.372 379.435 86.2527 378.866 86.1812 378.297C86.062 377.316 85.9189 377.453 84.4403 376.57C82.4371 375.393 79.957 375.55 77.8345 374.824C77.5245 374.707 76.9045 374.863 76.5706 375.02C75.7598 375.393 74.9251 375.786 74.3051 376.296C73.7566 376.747 71.8249 376.119 72.3734 377.335C71.3241 377.532 70.2987 377.747 69.2255 377.885C68.8678 377.924 68.2478 377.846 68.0331 377.669C67.8185 377.492 67.747 376.963 67.9139 376.904C69.8456 376.256 67.6039 375.393 67.747 374.667C67.7708 374.569 67.4131 374.412 67.2223 374.295C67.1031 374.451 66.9362 374.589 66.8646 374.765C66.2923 375.884 64.7899 376.649 63.5021 376.099C62.5482 375.687 61.5704 376.433 60.6881 375.55C60.3781 375.236 58.3749 374.981 57.3971 375.648C57.3494 375.687 56.8725 375.57 56.7771 375.472C56.3717 375.02 57.4209 374.275 56.1093 374.098C55.7278 374.039 55.4178 375.079 54.7739 375.275C54.2969 375.413 52.9853 375.119 52.6753 374.785C51.9837 374.059 48.115 374.558 47.805 373.753C44.983 375.441 43.0805 373.471 42.8659 372.902C33.3479 372.902 33.4169 371.71 32.9876 371.671C31.7952 371.534 36.9648 368.208 28.0485 373.233C22.492 373.233 23.801 372.764 23.1094 372.411C22.6324 372.176 24.3442 374.098 17.5532 372.902C8.90942 372.902 6.43986 371.136 6.43986 370.449C3.45248 369.767 1 367.702 1 367.702L1 6.14114ZM78.1446 196.741C78.2399 196.918 78.3592 197.094 78.6453 197.565C78.5023 197.585 78.1922 197.644 77.8584 197.722C77.7391 197.546 77.5245 197.349 77.5722 197.212C77.6437 197.016 77.9538 196.898 78.1446 196.741Z" fill="#FFE68E"/>
</svg>
