<svg width="27" height="35" viewBox="0 0 27 35" fill="none" xmlns="http://www.w3.org/2000/svg">
<path d="M-0.000976562 14.072C-0.000976562 6.70859 5.99858 0.740234 13.3994 0.740234C20.8013 0.740234 26.8009 6.70859 26.8009 14.072C26.8009 15.3898 26.6058 16.6618 26.2481 17.8669C24.3402 25.5433 13.3397 34.1296 13.3397 34.1296C13.3397 34.1296 0.911544 24.4352 0.180479 16.4353L0.212994 16.4291C0.0745424 15.6653 -0.000976562 14.8775 -0.000976562 14.072ZM13.2169 17.0416C16.245 17.0416 18.6994 14.5989 18.6994 11.5866C18.6994 8.57422 16.245 6.13262 13.2169 6.13262C10.1899 6.13262 7.73552 8.57422 7.73552 11.5866C7.73552 14.5989 10.1899 17.0416 13.2169 17.0416Z" fill="black"/>
</svg>
