<svg width="675" height="698" viewBox="0 0 675 698" fill="none" xmlns="http://www.w3.org/2000/svg">
<path d="M0 376.692L95.6375 246.881H149.744V376.692H167.916V407.752H149.744V451.905H95.618V407.752H0V376.692ZM95.618 376.692V312.664L50.9287 376.692H95.618Z" fill="#75D1F9"/>
<path d="M506.012 376.692L601.63 246.881H655.737V376.692H675.001V407.752H655.737V451.905H601.63V407.752H506.012V376.692ZM601.63 376.692V312.664L556.94 376.692H601.63Z" fill="#75D1F9"/>
<path d="M339.721 555.418C443.979 554.012 527.353 468.261 525.943 363.889C524.533 259.516 438.873 176.046 334.615 177.453C230.357 178.86 146.983 264.61 148.393 368.983C149.803 473.355 235.464 556.825 339.721 555.418Z" fill="#75D1F9"/>
<path d="M425.015 414.283C458.571 389.135 491.737 397.908 509.793 406.29C511.645 393.092 526.229 233.26 338.795 233.26C338.756 233.26 338.737 233.26 338.698 233.26C338.659 233.26 338.639 233.26 338.6 233.26C153.35 233.26 165.731 393.092 167.584 406.29C185.639 397.908 218.805 389.135 252.361 414.283C286.112 439.586 285.176 477.307 281.081 498.965C299.663 502.299 319.18 503.819 338.6 503.917C338.639 503.917 338.659 503.917 338.698 503.917C338.737 503.917 338.756 503.917 338.795 503.917C358.196 503.819 377.733 502.299 396.314 498.965C392.22 477.307 391.264 439.567 425.015 414.283ZM338.951 398.648C335.091 398.648 328.715 392.976 327.994 387.771C327.038 381.63 335.091 381.143 339.595 380.909C358.742 380.87 345.269 398.648 338.951 398.648Z" fill="white"/>
<path d="M339.575 380.909C335.071 381.143 327.038 381.61 327.974 387.771C328.675 392.975 335.071 398.648 338.931 398.648C345.268 398.648 358.741 380.87 339.575 380.909Z" fill="#333333"/>
<path d="M252.361 414.283C218.805 389.135 185.639 397.908 167.584 406.29C175.305 461.244 223.66 488.692 281.082 498.965C285.176 477.307 286.112 439.567 252.361 414.283Z" fill="white"/>
<path d="M509.792 406.29C491.737 397.908 458.571 389.135 425.015 414.283C391.264 439.586 392.2 477.307 396.295 498.965C453.716 488.672 502.091 461.225 509.792 406.29Z" fill="white"/>
<path d="M213.153 249.83C201.454 255.015 200.869 271.176 211.457 277.921L234.269 260.669C229.746 248.173 218.983 247.335 213.153 249.83Z" fill="#FFC1C2"/>
<path d="M199.814 221.856C166.375 236.671 164.699 282.872 194.979 302.133L260.18 252.812C247.253 217.138 216.485 214.76 199.814 221.856ZM211.455 277.901C200.867 271.156 201.452 254.996 213.151 249.81C218.981 247.334 229.744 248.153 234.267 260.629L211.455 277.901Z" fill="#333333"/>
<path d="M464.382 249.83C458.552 247.354 447.789 248.173 443.266 260.649L466.078 277.902C476.666 271.176 476.081 255.015 464.382 249.83Z" fill="#FFC1C2"/>
<path d="M477.719 221.856C461.049 214.76 430.281 217.138 417.373 252.793L482.555 302.113C512.835 282.872 511.139 236.691 477.719 221.856ZM466.079 277.901L443.266 260.649C447.79 248.173 458.553 247.335 464.383 249.83C476.081 255.015 476.666 271.176 466.079 277.901Z" fill="#333333"/>
<path d="M309.57 463.252C312.593 473.915 324.486 481.888 338.7 481.888C348.293 481.888 356.814 478.262 362.273 472.648C348.215 461.049 324.603 456.643 309.57 463.252Z" fill="#FF7979"/>
<path d="M509.792 406.29C491.737 397.908 458.571 389.135 425.015 414.283C391.264 439.586 392.2 477.307 396.295 498.965C453.716 488.672 502.091 461.225 509.792 406.29Z" fill="#FFDBDB"/>
<path d="M368.57 457.93C368.57 444.693 355.194 433.972 338.699 433.972C322.204 433.972 308.828 444.693 308.828 457.93C308.828 459.762 309.101 461.536 309.569 463.252C324.621 456.643 348.233 461.049 362.272 472.648C366.211 468.593 368.57 463.486 368.57 457.93Z" fill="#333333"/>
<path d="M252.361 414.283C218.805 389.135 185.639 397.908 167.584 406.29C175.305 461.244 223.66 488.692 281.082 498.965C285.176 477.307 286.112 439.567 252.361 414.283Z" fill="#FFDBDB"/>
<path d="M313.312 333.811C324.815 349.913 312.941 378.101 286.794 396.757C260.648 415.413 230.133 417.499 218.629 401.397C207.145 385.295 219 357.106 245.166 338.45C271.313 319.794 301.827 317.709 313.312 333.811Z" fill="#333333"/>
<path d="M364.066 333.811C352.562 349.913 364.436 378.101 390.583 396.757C416.73 415.413 447.244 417.499 458.748 401.397C470.252 385.295 458.377 357.106 432.231 338.45C406.064 319.794 375.55 317.709 364.066 333.811Z" fill="#333333"/>
<path d="M396.022 355.391C389.841 355.391 384.83 360.401 384.83 366.6C384.83 372.78 389.841 377.809 396.022 377.809C402.203 377.809 407.233 372.799 407.233 366.6C407.233 360.42 402.203 355.391 396.022 355.391ZM396.022 369.563C394.384 369.563 393.058 368.237 393.058 366.6C393.058 364.962 394.384 363.637 396.022 363.637C397.66 363.637 398.986 364.962 398.986 366.6C398.986 368.237 397.66 369.563 396.022 369.563Z" fill="white"/>
<path d="M281.356 355.391C275.175 355.391 270.145 360.401 270.145 366.6C270.145 372.78 275.156 377.809 281.356 377.809C287.537 377.809 292.548 372.799 292.548 366.6C292.567 360.42 287.556 355.391 281.356 355.391ZM281.356 369.563C279.718 369.563 278.392 368.237 278.392 366.6C278.392 364.962 279.718 363.637 281.356 363.637C282.994 363.637 284.32 364.962 284.32 366.6C284.32 368.237 282.994 369.563 281.356 369.563Z" fill="white"/>
<path d="M472.416 228.191C485.421 231.759 495.19 244.586 495.17 257.589C495.17 264.762 488.424 268.33 479.845 248.777C473.43 234.157 456.506 234.41 458.612 230.414C460.289 227.197 467.6 226.866 472.416 228.191Z" fill="#4D4D4D"/>
<path d="M205.117 228.191C192.112 231.759 182.344 244.586 182.344 257.589C182.344 264.762 189.09 268.33 197.669 248.777C204.084 234.157 221.008 234.41 218.902 230.414C217.226 227.197 209.914 226.866 205.117 228.191Z" fill="#4D4D4D"/>
<path d="M338.074 218.639C347.433 139.98 438.352 156.433 507.726 155.01C563.802 153.86 593.751 147.895 589.852 87.5217C588.487 66.234 607.634 -8.87695 494.526 1.14305C381.418 11.163 262.169 -1.91753 190.143 0.246319C118.118 2.41017 92.0686 17.4402 90.7038 82.5312C89.3389 147.622 99.2049 159.65 204.63 153.88C341.838 146.374 338.074 218.639 338.074 218.639Z" fill="#333333"/>
</svg>
